<?xml version="1.0" encoding="utf-8"?>
<!-- Generator: Adobe Illustrator 24.0.3, SVG Export Plug-In . SVG Version: 6.00 Build 0)  -->
<svg version="1.1" id="Layer_1" xmlns="http://www.w3.org/2000/svg" xmlns:xlink="http://www.w3.org/1999/xlink" x="0px" y="0px"
	 viewBox="0 0 1366 768" style="enable-background:new 0 0 1366 768;" xml:space="preserve">
<style type="text/css">
	.st0{fill:#1B142E;}
	.st1{fill:#FBB03B;stroke:#000000;stroke-width:0.3596;stroke-miterlimit:10;}
	.st2{fill:#FBB03B;stroke:#000000;stroke-width:0.334;stroke-miterlimit:10;}
</style>
<g>
	<rect x="0.5" y="0.5" class="st0" width="1365" height="767"/>
	<path d="M1365,1v766H1V1H1365 M1366,0H0v768h1366V0L1366,0z"/>
</g>
<polygon class="st1" points="1053.4,283.2 1055.9,291.1 1062.4,291.1 1057,296.2 1059.9,303 1051.9,298.3 1045.8,303.7 
	1047.6,295.8 1041.9,291.5 1048.4,291.1 "/>
<polygon class="st1" points="1187.4,506.1 1189.9,514 1196.4,514 1191,519 1193.9,525.9 1185.9,521.2 1179.8,526.6 1181.6,518.7 
	1175.9,514.4 1182.4,514 "/>
<polygon class="st1" points="983.4,49.2 985.9,57.1 992.4,57.1 987,62.2 989.9,69 981.9,64.3 975.8,69.7 977.6,61.8 971.9,57.5 
	978.4,57.1 "/>
<polygon class="st1" points="1285.4,351.2 1287.9,359.1 1294.4,359.1 1289,364.2 1291.9,371 1283.9,366.3 1277.8,371.7 
	1279.6,363.8 1273.9,359.5 1280.4,359.1 "/>
<polygon class="st2" points="1171.9,170.1 1176.6,180.3 1185.9,180.3 1178.4,185.9 1180.3,195.2 1172.9,189.6 1166.4,196.1 
	1166.4,186.8 1159.9,181.3 1168.2,180.3 "/>
<polygon class="st1" points="805.9,293.1 803.4,301 796.9,301 802.3,306 799.4,312.9 807.3,308.2 813.4,313.6 811.6,305.7 
	817.4,301.4 810.9,301 "/>
<polygon class="st1" points="594.9,664.1 592.4,672 585.9,672 591.3,677 588.4,683.9 596.3,679.2 602.4,684.6 600.6,676.7 
	606.4,672.4 599.9,672 "/>
<polygon class="st1" points="771.9,97.1 769.4,105 762.9,105 768.3,110 765.4,116.9 773.3,112.2 779.4,117.6 777.6,109.7 
	783.4,105.4 776.9,105 "/>
<polygon class="st1" points="644.9,506.1 642.4,514 635.9,514 641.3,519 638.4,525.9 646.3,521.2 652.4,526.6 650.6,518.7 
	656.4,514.4 649.9,514 "/>
<polygon class="st2" points="576.4,228.8 571.8,239 562.5,239 569.9,244.6 568.1,253.9 575.5,248.3 582,254.8 582,245.5 
	588.5,239.9 580.1,239 "/>
<polygon class="st1" points="375.9,585.1 373.4,593 366.9,593 372.3,598 369.4,604.9 377.3,600.2 383.4,605.6 381.6,597.7 
	387.4,593.4 380.9,593 "/>
<polygon class="st1" points="85.9,684.2 83.4,692.1 76.9,692.1 82.3,697.2 79.4,704 87.3,699.3 93.4,704.7 91.6,696.8 97.4,692.5 
	90.9,692.1 "/>
<polygon class="st1" points="354.9,65.1 352.4,73 345.9,73 351.3,78 348.4,84.9 356.3,80.2 362.4,85.6 360.6,77.7 366.4,73.4 
	359.9,73 "/>
<polygon class="st1" points="210.9,484.1 208.4,492 201.9,492 207.3,497 204.4,503.9 212.3,499.2 218.4,504.6 216.6,496.7 
	222.4,492.4 215.9,492 "/>
<polygon class="st2" points="128.4,370.8 123.8,381 114.5,381 121.9,386.6 120.1,395.9 127.5,390.3 134,396.8 134,387.5 
	140.5,381.9 132.1,381 "/>
<polygon class="st1" points="1100.4,674.1 1102.9,682 1109.4,682 1104,687 1106.9,693.9 1098.9,689.2 1092.8,694.6 1094.6,686.7 
	1088.9,682.4 1095.4,682 "/>
<polygon class="st1" points="906.4,484.1 908.9,492 915.4,492 910,497 912.9,503.9 904.9,499.2 898.8,504.6 900.6,496.7 
	894.9,492.4 901.4,492 "/>
<polygon class="st1" points="97.4,134.2 99.9,142.1 106.4,142.1 101,147.2 103.9,154 95.9,149.3 89.8,154.7 91.6,146.8 85.9,142.5 
	92.4,142.1 "/>
<polygon class="st1" points="461.4,378.1 463.9,386 470.4,386 465,391 467.9,397.9 459.9,393.2 453.8,398.6 455.6,390.7 
	449.9,386.4 456.4,386 "/>
<polygon class="st2" points="285.9,255.1 290.6,265.3 299.9,265.3 292.4,270.9 294.3,280.2 286.9,274.6 280.4,281.1 280.4,271.8 
	273.9,266.3 282.2,265.3 "/>
</svg>
